<svg width="88" height="45" viewBox="0 0 88 45" fill="none" xmlns="http://www.w3.org/2000/svg">
<g clip-path="url(#clip0)">
<path d="M5.79424 10.2024H2.35391V16.5789H6.15638C8.87243 16.5789 10.1399 15.4858 10.1399 13.2996C10.1399 11.1134 8.69136 10.2024 5.79424 10.2024ZM5.97531 2.00405H2.35391V8.01619H5.79424C8.51029 8.01619 9.77778 6.92308 9.77778 4.91903C9.95885 3.09717 8.51029 2.00405 5.97531 2.00405ZM0 18.583V0H5.97531C7.96708 0 9.59671 0.364372 10.6831 1.2753C11.7695 2.18623 12.3128 3.27935 12.3128 4.73684C12.3128 6.92308 11.2263 8.38057 9.23457 9.10931C10.321 9.2915 11.2263 9.83806 11.7695 10.5668C12.3128 11.4777 12.6749 12.3887 12.6749 13.4818C12.6749 15.1215 12.1317 16.2146 11.0453 17.1255C9.95885 18.0364 8.51029 18.583 6.51852 18.583H0Z" fill="#150F2C"/>
<path d="M20.6422 6.92306C19.3747 6.92306 18.4694 7.46962 17.7451 8.38055C17.2019 9.10929 16.8397 10.3846 16.8397 12.0243C16.8397 13.6639 17.2019 14.9393 17.9262 15.8502C18.6504 16.7611 19.5558 17.3077 20.8233 17.3077C22.0908 17.3077 22.9961 16.7611 23.7204 15.8502C24.4447 14.9393 24.8068 13.6639 24.8068 12.0243C24.8068 10.3846 24.4447 9.10929 23.7204 8.19836C22.8151 7.28743 21.9097 6.92306 20.6422 6.92306ZM16.1155 6.92306C17.2019 5.64775 18.8315 5.1012 20.6422 5.1012C22.634 5.1012 24.0825 5.64775 25.169 6.92306C26.2554 8.19836 26.7986 9.83804 26.7986 12.0243C26.7986 14.2105 26.2554 15.8502 25.169 17.1255C24.0825 18.4008 22.4529 18.9473 20.6422 18.9473C18.6504 18.9473 17.2019 18.4008 16.1155 17.1255C15.029 15.8502 14.4858 14.0283 14.4858 12.0243C14.4858 9.83804 15.029 8.01618 16.1155 6.92306Z" fill="#150F2C"/>
<path d="M34.0413 11.2955L40.5598 18.583H37.6627L31.6874 12.0243V18.583H29.3335V5.28339H31.6874V10.749L37.1195 5.28339H39.8356L34.0413 11.2955Z" fill="#150F2C"/>
<path d="M46.7159 4.91904C48.3456 4.91904 49.6131 5.4656 50.5184 6.37653C51.4238 7.28746 52.148 8.56276 52.3291 10.0203H49.9752C49.9752 9.10932 49.6131 8.38058 48.8888 7.65183C48.3456 7.10527 47.6213 6.7409 46.7159 6.7409C45.6295 6.7409 44.7242 7.28746 43.9999 8.19839C43.2756 9.10932 42.9135 10.3846 42.9135 12.0243C42.9135 13.664 43.2756 14.9393 43.9999 15.8502C44.7242 16.7611 45.6295 17.3077 46.7159 17.3077C47.6213 17.3077 48.3456 16.9433 48.8888 16.3968C49.432 15.8502 49.7941 14.9393 49.9752 14.0283H52.3291C52.148 15.668 51.6048 16.7611 50.5184 17.8543C49.432 18.9474 48.1645 19.3118 46.7159 19.3118C44.7242 19.3118 43.2756 18.7652 42.1892 17.4899C41.1028 16.2146 40.5596 14.5749 40.5596 12.3887C40.5596 10.2024 41.1028 8.56276 42.1892 7.28746C43.2756 5.64778 44.7242 4.91904 46.7159 4.91904Z" fill="#150F2C"/>
<path d="M13.9424 21.6801H16.4774L9.0535 36.8016C8.32922 38.0769 7.60494 39.17 6.88066 39.7166C6.15638 40.2631 5.06996 40.6275 3.98354 40.6275C3.25926 40.6275 2.71605 40.6275 2.35391 40.4453V38.4413C2.89712 38.2591 3.25926 38.2591 3.80247 38.2591C4.52675 38.2591 5.25103 38.0769 5.61317 37.7125C6.15638 37.3482 6.51852 36.8016 6.88066 35.8907L0 21.6801H2.53498L5.4321 27.5101C6.69959 30.2429 7.60494 32.2469 8.32922 33.7044C9.23457 31.8826 10.1399 29.8785 11.2263 27.5101L13.9424 21.6801Z" fill="#150F2C"/>
<path d="M21.5472 32.9757L28.0657 40.2632H24.9875L19.1933 33.5223V40.2632H16.8394V26.9636H19.1933V32.4291L24.6254 26.9636H27.3414L21.5472 32.9757Z" fill="#150F2C"/>
<path d="M35.6707 28.421C34.5843 28.421 33.6789 28.9676 33.1357 29.8785C32.4114 30.7895 32.2304 32.0648 32.2304 33.5223C32.2304 35.1619 32.5925 36.2551 33.1357 37.166C33.86 38.0769 34.5843 38.6235 35.6707 38.6235C36.7571 38.6235 37.6625 38.0769 38.3868 37.166C39.111 36.2551 39.4732 34.9797 39.4732 33.5223C39.4732 31.8826 39.111 30.7895 38.3868 29.8785C37.6625 28.9676 36.7571 28.421 35.6707 28.421ZM36.2139 26.5992C37.8435 26.5992 39.2921 27.1457 40.1975 28.421C41.2839 29.6963 41.646 31.336 41.646 33.5223C41.646 35.7085 41.1028 37.3482 40.1975 38.6235C39.2921 39.8988 37.8435 40.4453 36.2139 40.4453C35.3086 40.4453 34.5843 40.2632 33.86 39.8988C33.1357 39.5344 32.5925 38.9878 32.2304 38.2591V45H29.8765V26.9636H32.0493V28.7854C32.4114 28.0567 32.9547 27.5101 33.6789 27.1457C34.4032 26.7814 35.3086 26.5992 36.2139 26.5992Z" fill="#150F2C"/>
<path d="M51.9672 34.4332V33.7044C50.6997 33.8866 49.4323 33.8866 48.5269 34.0688C47.4405 34.251 46.7162 34.4332 46.173 34.7976C45.6298 35.1619 45.4487 35.7085 45.4487 36.2551C45.4487 36.9838 45.6298 37.5304 46.173 37.8947C46.7162 38.2591 47.2594 38.4413 48.1648 38.4413C49.2512 38.4413 50.1565 38.0769 50.8808 37.3482C51.243 36.9838 51.6051 36.4372 51.7862 36.0729C51.9672 35.8907 51.9672 35.3441 51.9672 34.4332ZM49.0701 26.5992C50.6997 26.5992 51.9672 26.9636 52.8726 27.8745C53.7779 28.7854 54.3211 30.0607 54.3211 31.7004V36.8016C54.3211 38.0769 54.5022 39.3522 54.6833 40.2632H52.5104C52.3294 39.7166 52.3294 38.9878 52.3294 38.2591C51.424 39.7166 49.7944 40.4453 47.8026 40.4453C46.5351 40.4453 45.4487 40.081 44.5434 39.3522C43.8191 38.6235 43.2759 37.7125 43.2759 36.6194C43.2759 35.5263 43.638 34.6154 44.3623 33.8866C45.0866 33.1579 46.3541 32.7935 48.1648 32.4291C49.4323 32.247 50.6997 32.0648 51.9672 32.0648V31.5182C51.9672 30.4251 51.7862 29.6963 51.243 29.1498C50.6997 28.6032 49.9755 28.421 49.0701 28.421C48.1648 28.421 47.4405 28.6032 46.8973 29.1498C46.3541 29.6963 46.173 30.2429 45.9919 31.1538H43.638C43.638 29.8785 44.1812 28.7854 45.0866 28.0567C46.173 26.9636 47.4405 26.5992 49.0701 26.5992Z" fill="#150F2C"/>
<path d="M61.5636 24.2308H59.3908V21.6801H61.5636V24.2308ZM59.7529 40.2631H57.399V26.9635H59.7529V40.2631ZM57.5801 24.2308H55.4072V21.6801H57.5801V24.2308Z" fill="#150F2C"/>
<path d="M74.2385 26.9636V40.2632H71.8846V34.4332H65.3661V40.2632H63.0122V26.9636H65.3661V32.6113H71.8846V26.9636H74.2385Z" fill="#150F2C"/>
<path d="M85.4653 34.4332V33.7044C84.1978 33.8866 82.9303 33.8866 82.025 34.0688C80.9385 34.251 80.2143 34.4332 79.671 34.7976C79.1278 35.1619 78.9468 35.7085 78.9468 36.2551C78.9468 36.9838 79.1278 37.5304 79.671 37.8947C80.2143 38.2591 80.7575 38.4413 81.6628 38.4413C82.7492 38.4413 83.6546 38.0769 84.3789 37.3482C84.741 36.9838 85.1031 36.4372 85.2842 36.0729C85.2842 35.8907 85.4653 35.3441 85.4653 34.4332ZM82.3871 26.5992C84.0167 26.5992 85.2842 26.9636 86.1896 27.8745C87.0949 28.7854 87.6381 30.0607 87.6381 31.7004V36.8016C87.6381 38.0769 87.8192 39.3522 88.0003 40.2632H86.0085C85.8274 39.7166 85.8274 38.9878 85.8274 38.2591C84.9221 39.7166 83.2924 40.4453 81.3007 40.4453C80.0332 40.4453 78.9468 40.081 78.0414 39.3522C77.3171 38.6235 76.7739 37.7125 76.7739 36.6194C76.7739 35.5263 77.1361 34.6154 77.8603 33.8866C78.5846 33.1579 79.8521 32.7935 81.6628 32.4291C82.9303 32.247 84.1978 32.0648 85.4653 32.0648V31.5182C85.4653 30.4251 85.2842 29.6963 84.741 29.1498C84.1978 28.6032 83.4735 28.421 82.5682 28.421C81.6628 28.421 80.9385 28.6032 80.3953 29.1498C79.8521 29.6963 79.671 30.2429 79.49 31.1538H77.1361C77.1361 29.8785 77.6793 28.7854 78.5846 28.0567C79.49 26.9636 80.7575 26.5992 82.3871 26.5992Z" fill="#150F2C"/>
</g>
<defs>
<clipPath id="clip0">
<rect width="88" height="45" fill="white"/>
</clipPath>
</defs>
</svg>
